<svg fill="none" xmlns="http://www.w3.org/2000/svg" viewBox="0 0 94 80"><path d="M27.521 17.51c.143.034.27.115.36.23.114.175.206.363.275.56l3.43 10.017.028.08h.559l1.226-4.277 1.356 4.276h.584l3.014-10.937h.953v-.62h-3.13v.62h.118c.953 0 .953.436.953.58v.336l-2.002 7.66-1.348-4.061 1.287-4.515h.837v-.62h-2.889v.61h.108c.242.006.478.071.689.19a.475.475 0 0 1 .162.39c.002.156-.009.311-.032.465l-.682 2.294-1.136-3.34h.743v-.609h-2.762v.62h.119a1.11 1.11 0 0 1 1.104.84l1.442 4.461-.938 3.289-2.885-8.59h1.01v-.62h-3.39v.62h.12a3.8 3.8 0 0 1 .717.05ZM43.207 22.941c-.602-.02-1.2.112-1.738.383a2.383 2.383 0 0 0-1.081 1.01c-.235.397-.36.85-.361 1.312-.001.414.104.821.306 1.183a2.279 2.279 0 0 0 2.128 1.276 4.078 4.078 0 0 0 1.749-.407v.184h1.947v-.628h-.119a2.383 2.383 0 0 1-.721-.086c-.09-.026-.191-.087-.191-.31v-4.54a1.876 1.876 0 0 0-.289-.945c-.21-.333-.5-.607-.844-.797a2.21 2.21 0 0 0-1.135-.3 2.882 2.882 0 0 0-1.028.163c-.236.08-.456.203-.65.36l-.024.026c-.05.036-.098.075-.141.111l-.148.123v-1.035h-.624v3.39h.624v-.12c.005-.373.089-.742.245-1.081.147-.366.384-.688.689-.938.25-.231.578-.36.92-.36.242.004.475.089.663.242.23.183.412.42.526.692.126.275.192.574.195.876a2.43 2.43 0 0 1 0 .296l-.898-.08Zm.996 3.862a2.423 2.423 0 0 1-1.558.603 1.69 1.69 0 0 1-1.208-.48 1.976 1.976 0 0 1-.57-1.381c-.011-.363.083-.721.27-1.031.175-.28.425-.505.722-.65.29-.139.608-.215.93-.223a1.576 1.576 0 0 1 1.442.631l-.028 2.531ZM48.339 18.921c0-1.687.454-2.524 1.388-2.524.449.015.889.131 1.287.34v1.903h.318a3.595 3.595 0 0 0-.026.4v1.511h-.793v.757h.793v5.943h-.793v.628h2.726v-.628h-.122c-.361 0-.574-.065-.65-.191a1.248 1.248 0 0 1-.133-.61v-5.142h1.561v-.757h-1.561v-1.63c0-1.687.454-2.524 1.385-2.524.449.015.889.13 1.287.34v.223l-.635.778.44.426.21-.21v.7h.331v8.597h-.793v.628h2.589v-.628h-.112a.963.963 0 0 1-.512-.105c-.068-.05-.144-.194-.144-.566V16.332l.458-.613-.631-.216-.577.721v-.7h-.624v.242a5.275 5.275 0 0 0-.898-.072 2.425 2.425 0 0 0-2.11 1.02c-.14.216-.26.444-.36.682v-1.872h-.62v.242c-.298-.05-.6-.074-.902-.072a2.408 2.408 0 0 0-2.105 1.02 4 4 0 0 0-.697 2.34v1.497h-.796v.757h.793v5.943h-.793v.628h2.726v-.628h-.12c-.36 0-.576-.065-.652-.191a1.291 1.291 0 0 1-.133-.61v-5.142H49.9v-.757h-1.561v-1.63ZM59.196 27.553a3.668 3.668 0 0 0 1.745.457h.231a4.82 4.82 0 0 0 2.485-.72 4.013 4.013 0 0 0 1.442-1.962l.05-.116-.63-.216-.04.105a3.246 3.246 0 0 1-1.212 1.489 4.13 4.13 0 0 1-1.846.674.462.462 0 0 0-.137.029 2.61 2.61 0 0 1-1.424-.44 3.605 3.605 0 0 1-1.165-1.215 3.133 3.133 0 0 1-.437-1.58 3.27 3.27 0 0 1 .264-1.179h6.516l-.043-.151a2.597 2.597 0 0 0-.635-1.093 3.605 3.605 0 0 0-1.197-.876 4.118 4.118 0 0 0-3.354.036 4.277 4.277 0 0 0-1.569 1.168 3.628 3.628 0 0 0-.858 1.89c.006.098.006.197 0 .295a3.353 3.353 0 0 0 .498 2.16c.327.52.78.947 1.316 1.245Zm-.112-5.45a3.076 3.076 0 0 1 2.196-.8c.084.026.17.046.256.062l.332.083c.083.025.18.054.278.09l.263.075.191.058c.285.198.483.335.613.433h-4.129ZM34.127 39.973a4.326 4.326 0 0 0-2.366-.631 8.32 8.32 0 0 0-2.96.59v-.59h-2.19v.641h.116c.286-.023.573.043.819.192a.962.962 0 0 1 .23.72v8.93h-1.034v.623h3.49v-.624h-.119a.997.997 0 0 0-.241.025 1.858 1.858 0 0 1-.217 0c-.764 0-.854-.328-.854-.576V48.27a7.572 7.572 0 0 0 2.21.498 5.206 5.206 0 0 0 2.77-.722 4.835 4.835 0 0 0 1.745-1.871 5.36 5.36 0 0 0 .57-2.384 5.09 5.09 0 0 0-.487-2.185 3.816 3.816 0 0 0-1.482-1.633Zm-2.885 8.063a3.461 3.461 0 0 1-2.427-1V40.94a2.4 2.4 0 0 1 .995-.638c.46-.181.95-.27 1.443-.264a3.884 3.884 0 0 1 2.47.859c.721.57 1.147 1.442 1.284 2.629 0 .054 0 .187.04.36.007.12.007.24 0 .36a3.454 3.454 0 0 1-.545 1.847 4.085 4.085 0 0 1-1.443 1.4 3.505 3.505 0 0 1-1.831.544h.014ZM42.36 49.735c-.09-.029-.191-.09-.191-.31v-4.507a1.9 1.9 0 0 0-.289-.942 2.272 2.272 0 0 0-.804-.786c-.34-.2-.73-.304-1.125-.299a2.954 2.954 0 0 0-1.028.162c-.233.082-.45.204-.642.36l-.194.16-.116.097v-1.035h-.62v3.372h.62v-.116c.003-.373.085-.742.242-1.082.144-.364.378-.685.681-.933.248-.232.574-.36.913-.361.24.004.472.087.66.238.228.182.409.417.526.685.125.274.191.571.195.873a2.47 2.47 0 0 1 0 .295l-.877-.083a3.647 3.647 0 0 0-1.73.361 2.41 2.41 0 0 0-1.082 1.01 2.572 2.572 0 0 0-.36 1.301c-.003.41.1.814.298 1.172.203.38.496.702.855.938.384.22.82.336 1.262.335a4.031 4.031 0 0 0 1.735-.407v.184h1.929v-.624h-.12a2.43 2.43 0 0 1-.738-.058Zm-2.496-3.501a1.578 1.578 0 0 1 1.414.624v2.524a2.427 2.427 0 0 1-1.544.598 1.702 1.702 0 0 1-1.2-.48 1.936 1.936 0 0 1-.563-1.37c-.013-.359.08-.714.27-1.02.166-.28.409-.505.7-.649.289-.14.603-.217.923-.227ZM49.005 49.741s-.072-.047-.072-.317v-4.068a2.568 2.568 0 0 0-.36-1.403 1.987 1.987 0 0 0-.837-.72 2.113 2.113 0 0 0-1.803 0c-.173.1-.407.259-.7.468v-.137l.43-.721-.451-.235-1.828 2.384.45.256.361-.469v5.049h-.653v.623h2.705v-.623h-.09c-.25.016-.5-.037-.721-.152-.127-.072-.184-.249-.184-.516v-3.544a2.142 2.142 0 0 1 .41-1.385 1.168 1.168 0 0 1 .92-.472c.226 0 .446.075.624.212.217.16.39.374.498.62.142.323.21.673.202 1.025v4.212h-.804v.623h2.722v-.623h-.115a1.662 1.662 0 0 1-.704-.087ZM54.785 48.965a1.757 1.757 0 0 1-1.605.984c-.72-.082-1.063-.832-1.063-2.235V43.92h1.413v-.771h-1.413v-3.293h-.318l-.72.862v2.43h-.787v.772h.786v4.328a2.403 2.403 0 0 0 .678 1.766 2.261 2.261 0 0 0 1.64.685c.38.02.757-.076 1.082-.273.243-.148.439-.36.567-.614.108-.174.175-.372.194-.576v-.166l-.421-.213-.033.108ZM63.778 43.29v.624h.12c.226-.014.452.012.67.075.119.069.148.282.148.451a8.186 8.186 0 0 1-.473 2.03c-.245.761-.44 1.295-.58 1.609l-1.55-4.165h.72v-.624h-2.646v-.656h-.639v.577a1.87 1.87 0 0 0-.782-.152 1.89 1.89 0 0 0-1.468.653l.552-.721-.425-.419-1.98 2.243.432.437.397-.397v4.955h-.786v.623h2.705v-.623h-.116c-.533 0-.779-.213-.779-.668v-4.395c.404-.65.844-.974 1.298-.974a.695.695 0 0 1 .635.267c.17.202.263.457.263.721.039.377.057.757.054 1.136v.119h.639v-2.08c.595 0 .966.245 1.118.703l1.803 4.936a13.422 13.422 0 0 1-.823 1.763 18.559 18.559 0 0 1-1.107 1.688c-.45.566-.681.65-.782.65a.093.093 0 0 1-.069-.033l-.036-.03h-.544v1.443h.13a2.453 2.453 0 0 0 1.402-.721 7.11 7.11 0 0 0 1.194-1.569 20.11 20.11 0 0 0 1.064-2.279c.339-.822.72-1.871 1.154-3.108l1.143-3.454h.818V43.3l-2.874-.011Z" fill="#623C21"/><path d="M91.628 48.68a47.82 47.82 0 0 0-9.177 4.043c.411-.869.793-1.749 1.143-2.654 2.712-.292 8.434-1.9 9.682-10.237 0 0-3.577 1.172-8.182 5.438.198-.815.36-1.645.509-2.481 2.603-.992 7.64-4.053 6.952-12.733 0 0-3.12 1.803-6.39 7.284 0-.436.032-.873.032-1.313 0-.62-.025-1.23-.053-1.842 2.21-1.49 6.422-5.481 4.25-13.39a57.79 57.79 0 0 0-4.9 7.83c-.17-.873-.36-1.728-.584-2.583 1.634-1.676 4.88-6.191 1.273-13.06 0 0-1.972 3.54-2.546 9.04a40.47 40.47 0 0 0-1.29-3.011c1.06-1.94 2.78-6.83-1.623-13.44a33.762 33.762 0 0 0-.981 8.853 36.996 36.996 0 0 0-1.695-2.358c.44-2.301 1.031-8.51-4.428-12.066 0 0-.89 2.059.721 7.933-.191-.19-.4-.36-.598-.552A14.027 14.027 0 0 0 62.744.793S64.771 5.77 73.62 9.776c0 0-5.146-1.544-8.233.617 0 0 6.462 4.37 11.63 2.884.584.768 1.15 1.554 1.673 2.362-1.89-.52-5.827-1.406-8.77-.804 0 0 5.964 5.586 11.179 5.175.45.962.865 1.94 1.23 2.938-1.97-1.006-5.994-2.783-8.705-2.163 0 0 5.048 6.458 9.905 6.05.358 1.447.63 2.914.815 4.393 0 0 0 .036-.022.054-.021.018-4.27-5.863-9.09-5.146 0 0 2.885 6.404 9.375 8.655 0 .41.036.822.036 1.236 0 .985-.05 1.959-.126 2.925-1.038-1.77-4.082-6.44-7.406-6.938 0 0-1.115 4.475 6.85 11.096a43.918 43.918 0 0 1-.72 3.115c-.75-1.677-3.112-6.36-6.635-8.041 0 0-1.006 6.357 5.365 11.773a37.057 37.057 0 0 1-1.803 3.913c-.115-1.428-.92-8.142-5.524-9.516 0 0-.584 7.77 3.729 12.458a37.478 37.478 0 0 1-2.301 3.116c-.065-1.46-.545-8.496-3.487-10.432 0 0-2.477 4.77.844 13.324a38.33 38.33 0 0 1-3.534 3.083l-.292.058s3.447-7.511-.797-11.42c0 0-3.09 2.477-1.27 13.039a37.283 37.283 0 0 1-3.306 1.929 16.783 16.783 0 0 0 .844-10.854s-5.33 1.688-4.483 12.502a37.596 37.596 0 0 1-27.906-.224c.76-10.616-4.497-12.26-4.497-12.26a16.757 16.757 0 0 0 .681 10.457 37.642 37.642 0 0 1-3.083-1.882c1.692-10.277-1.33-12.697-1.33-12.697-3.639 3.35-1.627 9.343-.977 10.988a37.766 37.766 0 0 1-3.484-3.137c3.076-8.294.682-12.895.682-12.895-2.615 1.716-3.285 7.442-3.448 9.736a31.678 31.678 0 0 1-2.004-2.806c3.94-4.716 3.39-12.072 3.39-12.072-3.913 1.171-5.05 6.223-5.41 8.567a36.2 36.2 0 0 1-1.486-3.35c5.889-5.33 4.926-11.395 4.926-11.395-3.05 1.454-5.236 5.2-6.245 7.248a38.905 38.905 0 0 1-.592-2.769c7.414-6.383 6.347-10.663 6.347-10.663-2.885.43-5.546 3.988-6.884 6.087a35.988 35.988 0 0 1-.061-2.073c0-.487 0-.97.029-1.443 6.09-2.42 8.79-8.438 8.79-8.438-3.66-.534-7.027 2.748-8.412 4.331.18-1.221.42-2.423.721-3.606 4.688-.112 9.322-6.065 9.322-6.065-2.409-.57-5.86.779-7.98 1.803.33-.866.69-1.72 1.082-2.56 5.07 0 10.608-5.197 10.608-5.197-2.614-.537-6.004.108-8.059.617.458-.696.938-1.385 1.442-2.056 5.081 1.118 11.146-2.985 11.146-2.985-2.697-1.886-6.959-.949-7.998-.682l.08-.083C28.559 5.687 30.56.82 30.56.82A14.103 14.103 0 0 0 18.82 8.593l-.148.152c1.947-6.488.98-8.745.98-8.745-6.029 3.927-4.687 11.096-4.301 12.653a38.275 38.275 0 0 0-1.847 2.73 34.193 34.193 0 0 0-.944-9.826c-4.908 7.374-2.2 12.62-1.295 13.987a40.217 40.217 0 0 0-1.507 3.78C9.394 17.081 7.1 12.981 7.1 12.981c-4.002 7.648.45 12.372 1.731 13.511a38.162 38.162 0 0 0-.624 3.015c-1.994-4.327-5.322-8.723-5.322-8.723C.508 29.439 5.77 33.405 7.702 34.53c-.021.494-.036.988-.036 1.486 0 .815.036 1.626.087 2.434C4.263 32.07.72 30.045.72 30.045c-.753 9.437 5.272 12.232 7.573 12.95.18 1.016.407 2.019.67 3.01C3.984 41.126 0 39.821 0 39.821c1.349 9.015 7.933 10.169 10.284 10.284a39.237 39.237 0 0 0 1.345 3.087 47.887 47.887 0 0 0-9.981-4.511c2.037 9.047 10.097 8.842 12.3 8.614a39.245 39.245 0 0 0 1.724 2.445C10.58 58.298 4.63 57.937 4.63 57.937c4.655 7.753 12.044 6.275 14.327 5.586.7.721 1.42 1.396 2.163 2.052-5.293-.52-11.351.386-11.351.386 6.01 7.147 13.201 3.815 15.264 2.625a39.4 39.4 0 0 0 4.175 2.452c-8.535-.977-13.05 2.438-13.05 2.438 8.208 5.437 14.23.591 15.96-1.111a38.901 38.901 0 0 0 8.777 2.445c.098.133.069.263-.194.36-.217.05-.43.094-.635.148h-.04c-1.72.326-3.368.953-4.871 1.85v2.647c11.178-6.563 21.636-.3 21.636-.3V77.05a25.2 25.2 0 0 0-4.59-1.695s-.693-.22-.754-.36a39.086 39.086 0 0 0 9.895-2.485c1.922 1.803 7.835 6.228 15.794.952 0 0-4.259-3.245-12.333-2.524a38.627 38.627 0 0 0 3.758-2.2c2.401 1.295 9.22 4.025 14.957-2.798 0 0-5.582-.836-10.713-.44a39.145 39.145 0 0 0 1.994-1.868c2.694.7 9.487 1.576 13.861-5.715A62.93 62.93 0 0 0 78.37 59.51a41.817 41.817 0 0 0 1.525-2.196c2.762.166 9.859-.26 11.752-8.655" fill="#623C21"/></svg>